<svg xmlns="http://www.w3.org/2000/svg" xmlns:xlink="http://www.w3.org/1999/xlink" width="1050"
    zoomAndPan="magnify" viewBox="0 0 787.5 264.749989" height="353"
    preserveAspectRatio="xMidYMid meet" version="1.0">
    <defs>
        <g />
        <clipPath id="fc2f01e128">
            <path d="M 111 38 L 373 38 L 373 216.09375 L 111 216.09375 Z M 111 38 "
                clip-rule="nonzero" />
        </clipPath>
        <clipPath id="2dcc0cc57b">
            <path d="M 205 164 L 279 164 L 279 216.09375 L 205 216.09375 Z M 205 164 "
                clip-rule="nonzero" />
        </clipPath>
        <clipPath id="24699a7a41">
            <path d="M 2 58.363281 L 264 58.363281 L 264 237 L 2 237 Z M 2 58.363281 "
                clip-rule="nonzero" />
        </clipPath>
        <clipPath id="73706b1f5f">
            <path d="M 95 58.363281 L 170 58.363281 L 170 111 L 95 111 Z M 95 58.363281 "
                clip-rule="nonzero" />
        </clipPath>
    </defs>
    <g fill="#0a0a0a" fill-opacity="1">
        <g transform="translate(375.505494, 195.949963)">
            <g>
                <path
                    d="M 113.3125 0 L 85.140625 0 L 85.140625 -43.046875 L 39.25 -43.046875 L 39.25 0 L 11.078125 0 L 11.078125 -110.78125 L 39.25 -110.78125 L 39.25 -65.203125 L 85.140625 -65.203125 L 85.140625 -110.78125 L 113.3125 -110.78125 Z M 113.3125 0 " />
            </g>
        </g>
    </g>
    <g fill="#2563eb" fill-opacity="1">
        <g transform="translate(499.899739, 195.949963)">
            <g>
                <path
                    d="M 113.3125 0 L 85.140625 0 L 85.140625 -43.046875 L 39.25 -43.046875 L 39.25 0 L 11.078125 0 L 11.078125 -110.78125 L 39.25 -110.78125 L 39.25 -65.203125 L 85.140625 -65.203125 L 85.140625 -110.78125 L 113.3125 -110.78125 Z M 113.3125 0 " />
            </g>
        </g>
    </g>
    <g fill="#2563eb" fill-opacity="1">
        <g transform="translate(624.286494, 195.949963)">
            <g>
                <path
                    d="M 113.3125 0 L 88.46875 0 L 37.515625 -68.21875 L 37.515625 0 L 11.078125 0 L 11.078125 -110.78125 L 35.921875 -110.78125 L 87.046875 -42.421875 L 87.046875 -110.78125 L 113.3125 -110.78125 Z M 113.3125 0 " />
            </g>
        </g>
    </g>
    <g clip-path="url(#fc2f01e128)">
        <path fill="#0a0a0a"
            d="M 364.824219 216.09375 L 335.519531 216.09375 C 333.15625 216.09375 331.03125 215.027344 329.613281 213.257812 L 247.84375 107.265625 C 244.890625 103.484375 238.980469 103.484375 236.027344 107.265625 L 154.375 213.257812 C 152.957031 215.027344 150.832031 216.09375 148.46875 216.09375 L 119.164062 216.09375 C 113.136719 216.09375 109.59375 209.355469 113.253906 204.511719 L 236.144531 41.09375 C 239.097656 37.191406 245.125 37.191406 248.078125 41.09375 L 370.851562 204.511719 C 374.398438 209.355469 370.96875 216.09375 364.824219 216.09375 Z M 364.824219 216.09375 "
            fill-opacity="1" fill-rule="nonzero" />
    </g>
    <g clip-path="url(#2dcc0cc57b)">
        <path fill="#0a0a0a"
            d="M 271.476562 216.09375 L 212.511719 216.09375 C 206.132812 216.09375 202.703125 208.292969 206.839844 203.210938 L 236.261719 166.820312 C 239.21875 163.15625 244.652344 163.15625 247.726562 166.820312 L 277.148438 203.210938 C 281.285156 208.292969 277.855469 216.09375 271.476562 216.09375 Z M 271.476562 216.09375 "
            fill-opacity="1" fill-rule="nonzero" />
    </g>
    <g clip-path="url(#24699a7a41)">
        <path fill="#0a0a0a"
            d="M 255.738281 58.363281 L 226.433594 58.363281 C 224.070312 58.363281 221.941406 59.425781 220.523438 61.199219 L 138.753906 167.191406 C 135.800781 170.972656 129.894531 170.972656 126.9375 167.191406 L 45.289062 61.199219 C 43.871094 59.425781 41.742188 58.363281 39.378906 58.363281 L 10.074219 58.363281 C 4.046875 58.363281 0.503906 65.097656 4.167969 69.941406 L 127.058594 233.363281 C 130.011719 237.261719 136.039062 237.261719 138.992188 233.363281 L 261.761719 69.941406 C 265.308594 65.097656 261.882812 58.363281 255.738281 58.363281 Z M 255.738281 58.363281 "
            fill-opacity="1" fill-rule="nonzero" />
    </g>
    <g clip-path="url(#73706b1f5f)">
        <path fill="#0a0a0a"
            d="M 162.386719 58.363281 L 103.425781 58.363281 C 97.042969 58.363281 93.617188 66.160156 97.753906 71.242188 L 127.175781 107.636719 C 130.128906 111.300781 135.566406 111.300781 138.636719 107.636719 L 168.058594 71.242188 C 172.195312 66.160156 168.769531 58.363281 162.386719 58.363281 Z M 162.386719 58.363281 "
            fill-opacity="1" fill-rule="nonzero" />
    </g>
</svg>