<svg xmlns="http://www.w3.org/2000/svg" xmlns:xlink="http://www.w3.org/1999/xlink" width="500"
    zoomAndPan="magnify" viewBox="0 0 375 374.999991" height="500"
    preserveAspectRatio="xMidYMid meet" version="1.0">
    <defs>
        <clipPath id="0212369cab">
            <path
                d="M 187.5 0 C 83.945312 0 0 83.945312 0 187.5 C 0 291.054688 83.945312 375 187.5 375 C 291.054688 375 375 291.054688 375 187.5 C 375 83.945312 291.054688 0 187.5 0 Z M 187.5 0 "
                clip-rule="nonzero" />
        </clipPath>
        <clipPath id="766b90cc29">
            <path d="M 126 108 L 336 108 L 336 251.0625 L 126 251.0625 Z M 126 108 "
                clip-rule="nonzero" />
        </clipPath>
        <clipPath id="4000024178">
            <path d="M 201 209 L 261 209 L 261 251.0625 L 201 251.0625 Z M 201 209 "
                clip-rule="nonzero" />
        </clipPath>
        <clipPath id="5f62250389">
            <path d="M 39 123.945312 L 249 123.945312 L 249 267 L 39 267 Z M 39 123.945312 "
                clip-rule="nonzero" />
        </clipPath>
        <clipPath id="74e2f3333e">
            <path d="M 114 123.945312 L 174 123.945312 L 174 166 L 114 166 Z M 114 123.945312 "
                clip-rule="nonzero" />
        </clipPath>
    </defs>
    <g clip-path="url(#0212369cab)">
        <rect x="-37.5" width="450" fill="#000000" y="-37.499999" height="449.999989"
            fill-opacity="1" />
    </g>
    <g clip-path="url(#766b90cc29)">
        <path fill="#f1f5f9"
            d="M 329.539062 251.0625 L 306.066406 251.0625 C 304.175781 251.0625 302.46875 250.210938 301.335938 248.792969 L 235.839844 163.894531 C 233.472656 160.867188 228.742188 160.867188 226.375 163.894531 L 160.976562 248.792969 C 159.839844 250.210938 158.136719 251.0625 156.242188 251.0625 L 132.773438 251.0625 C 127.945312 251.0625 125.105469 245.667969 128.039062 241.789062 L 226.46875 110.894531 C 228.835938 107.769531 233.664062 107.769531 236.03125 110.894531 L 334.367188 241.789062 C 337.207031 245.667969 334.460938 251.0625 329.539062 251.0625 Z M 329.539062 251.0625 "
            fill-opacity="1" fill-rule="nonzero" />
    </g>
    <g clip-path="url(#4000024178)">
        <path fill="#f1f5f9"
            d="M 254.769531 251.0625 L 207.542969 251.0625 C 202.429688 251.0625 199.6875 244.816406 203 240.746094 L 226.566406 211.597656 C 228.929688 208.664062 233.285156 208.664062 235.746094 211.597656 L 259.3125 240.746094 C 262.625 244.816406 259.878906 251.0625 254.769531 251.0625 Z M 254.769531 251.0625 "
            fill-opacity="1" fill-rule="nonzero" />
    </g>
    <g clip-path="url(#5f62250389)">
        <path fill="#f1f5f9"
            d="M 242.21875 123.945312 L 218.746094 123.945312 C 216.851562 123.945312 215.148438 124.796875 214.015625 126.21875 L 148.519531 211.113281 C 146.152344 214.144531 141.421875 214.144531 139.054688 211.113281 L 73.65625 126.21875 C 72.519531 124.796875 70.816406 123.945312 68.921875 123.945312 L 45.449219 123.945312 C 40.625 123.945312 37.785156 129.339844 40.71875 133.222656 L 139.148438 264.117188 C 141.515625 267.238281 146.34375 267.238281 148.707031 264.117188 L 247.046875 133.222656 C 249.882812 129.339844 247.140625 123.945312 242.21875 123.945312 Z M 242.21875 123.945312 "
            fill-opacity="1" fill-rule="nonzero" />
    </g>
    <g clip-path="url(#74e2f3333e)">
        <path fill="#f1f5f9"
            d="M 167.449219 123.945312 L 120.21875 123.945312 C 115.109375 123.945312 112.363281 130.191406 115.675781 134.261719 L 139.246094 163.414062 C 141.609375 166.347656 145.964844 166.347656 148.425781 163.414062 L 171.992188 134.261719 C 175.304688 130.191406 172.558594 123.945312 167.449219 123.945312 Z M 167.449219 123.945312 "
            fill-opacity="1" fill-rule="nonzero" />
    </g>
</svg>