<svg xmlns="http://www.w3.org/2000/svg" xmlns:xlink="http://www.w3.org/1999/xlink" width="500" zoomAndPan="magnify" viewBox="0 0 375 374.999991" height="500" preserveAspectRatio="xMidYMid meet" version="1.0"><defs><clipPath id="019fe5338a"><path d="M 111 88 L 373 88 L 373 266.339844 L 111 266.339844 Z M 111 88 " clip-rule="nonzero"/></clipPath><clipPath id="029f3ae8dc"><path d="M 204 214 L 279 214 L 279 266.339844 L 204 266.339844 Z M 204 214 " clip-rule="nonzero"/></clipPath><clipPath id="918d15ff66"><path d="M 2 108.4375 L 264 108.4375 L 264 287 L 2 287 Z M 2 108.4375 " clip-rule="nonzero"/></clipPath><clipPath id="f4aa21e014"><path d="M 96 108.4375 L 171 108.4375 L 171 161 L 96 161 Z M 96 108.4375 " clip-rule="nonzero"/></clipPath></defs><g clip-path="url(#019fe5338a)"><path fill="#ffffff" d="M 365.042969 266.5625 L 335.679688 266.5625 C 333.308594 266.5625 331.179688 265.496094 329.757812 263.71875 L 247.824219 157.515625 C 244.867188 153.726562 238.945312 153.726562 235.984375 157.515625 L 154.171875 263.71875 C 152.75 265.496094 150.621094 266.5625 148.253906 266.5625 L 118.890625 266.5625 C 112.851562 266.5625 109.296875 259.8125 112.96875 254.957031 L 236.105469 91.210938 C 239.0625 87.304688 245.101562 87.304688 248.0625 91.210938 L 371.078125 254.957031 C 374.632812 259.8125 371.199219 266.5625 365.042969 266.5625 Z M 365.042969 266.5625 " fill-opacity="1" fill-rule="nonzero"/></g><g clip-path="url(#029f3ae8dc)"><path fill="#ffffff" d="M 271.503906 266.5625 L 212.425781 266.5625 C 206.03125 266.5625 202.597656 258.746094 206.742188 253.65625 L 236.222656 217.1875 C 239.183594 213.519531 244.628906 213.519531 247.707031 217.1875 L 277.1875 253.65625 C 281.332031 258.746094 277.898438 266.5625 271.503906 266.5625 Z M 271.503906 266.5625 " fill-opacity="1" fill-rule="nonzero"/></g><g clip-path="url(#918d15ff66)"><path fill="#ffffff" d="M 256.109375 108.4375 L 226.746094 108.4375 C 224.378906 108.4375 222.246094 109.503906 220.824219 111.277344 L 138.894531 217.484375 C 135.933594 221.273438 130.011719 221.273438 127.054688 217.484375 L 45.238281 111.277344 C 43.820312 109.503906 41.6875 108.4375 39.320312 108.4375 L 9.957031 108.4375 C 3.917969 108.4375 0.367188 115.1875 4.035156 120.039062 L 127.171875 283.785156 C 130.132812 287.695312 136.171875 287.695312 139.128906 283.785156 L 262.148438 120.039062 C 265.699219 115.1875 262.265625 108.4375 256.109375 108.4375 Z M 256.109375 108.4375 " fill-opacity="1" fill-rule="nonzero"/></g><g clip-path="url(#f4aa21e014)"><path fill="#ffffff" d="M 162.574219 108.4375 L 103.492188 108.4375 C 97.097656 108.4375 93.664062 116.25 97.808594 121.34375 L 127.289062 157.808594 C 130.25 161.480469 135.695312 161.480469 138.773438 157.808594 L 168.257812 121.34375 C 172.398438 116.25 168.964844 108.4375 162.574219 108.4375 Z M 162.574219 108.4375 " fill-opacity="1" fill-rule="nonzero"/></g></svg>