<svg xmlns="http://www.w3.org/2000/svg" xmlns:xlink="http://www.w3.org/1999/xlink" width="500"
    zoomAndPan="magnify" viewBox="0 0 375 201.000001" height="268"
    preserveAspectRatio="xMidYMid meet" version="1.0">
    <defs>
        <clipPath id="f663363aa1">
            <path
                d="M 111 0.222656 L 372 0.222656 L 372 178.152344 L 111 178.152344 Z M 111 0.222656 "
                clip-rule="nonzero" />
        </clipPath>
        <clipPath id="399f39bbfe">
            <path d="M 204 126 L 279 126 L 279 178.152344 L 204 178.152344 Z M 204 126 "
                clip-rule="nonzero" />
        </clipPath>
        <clipPath id="ff1f9fc0bd">
            <path d="M 3 21.03125 L 264 21.03125 L 264 199 L 3 199 Z M 3 21.03125 "
                clip-rule="nonzero" />
        </clipPath>
        <clipPath id="0fc73a9ce9">
            <path d="M 96 21.03125 L 171 21.03125 L 171 73 L 96 73 Z M 96 21.03125 "
                clip-rule="nonzero" />
        </clipPath>
    </defs>
    <g clip-path="url(#f663363aa1)">
        <path fill="#0a0a0a"
            d="M 364.164062 178.371094 L 334.945312 178.371094 C 332.589844 178.371094 330.46875 177.3125 329.054688 175.542969 L 247.527344 69.867188 C 244.582031 66.09375 238.691406 66.09375 235.746094 69.867188 L 154.335938 175.542969 C 152.921875 177.3125 150.800781 178.371094 148.445312 178.371094 L 119.230469 178.371094 C 113.21875 178.371094 109.6875 171.65625 113.339844 166.824219 L 235.863281 3.890625 C 238.808594 0.00390625 244.816406 0.00390625 247.761719 3.890625 L 370.171875 166.824219 C 373.703125 171.65625 370.289062 178.371094 364.164062 178.371094 Z M 364.164062 178.371094 "
            fill-opacity="1" fill-rule="nonzero" />
    </g>
    <g clip-path="url(#399f39bbfe)">
        <path fill="#0a0a0a"
            d="M 271.089844 178.371094 L 212.300781 178.371094 C 205.9375 178.371094 202.523438 170.597656 206.644531 165.53125 L 235.980469 129.242188 C 238.925781 125.589844 244.347656 125.589844 247.410156 129.242188 L 276.746094 165.53125 C 280.867188 170.597656 277.453125 178.371094 271.089844 178.371094 Z M 271.089844 178.371094 "
            fill-opacity="1" fill-rule="nonzero" />
    </g>
    <g clip-path="url(#ff1f9fc0bd)">
        <path fill="#0a0a0a"
            d="M 255.769531 21.03125 L 226.550781 21.03125 C 224.195312 21.03125 222.074219 22.089844 220.660156 23.859375 L 139.132812 129.535156 C 136.1875 133.304688 130.296875 133.304688 127.351562 129.535156 L 45.945312 23.859375 C 44.53125 22.089844 42.410156 21.03125 40.054688 21.03125 L 10.835938 21.03125 C 4.828125 21.03125 1.292969 27.746094 4.945312 32.574219 L 127.46875 195.511719 C 130.414062 199.398438 136.425781 199.398438 139.371094 195.511719 L 261.777344 32.574219 C 265.3125 27.746094 261.894531 21.03125 255.769531 21.03125 Z M 255.769531 21.03125 "
            fill-opacity="1" fill-rule="nonzero" />
    </g>
    <g clip-path="url(#0fc73a9ce9)">
        <path fill="#0a0a0a"
            d="M 162.695312 21.03125 L 103.90625 21.03125 C 97.546875 21.03125 94.128906 28.804688 98.253906 33.871094 L 127.589844 70.160156 C 130.535156 73.808594 135.953125 73.808594 139.015625 70.160156 L 168.351562 33.871094 C 172.476562 28.804688 169.058594 21.03125 162.695312 21.03125 Z M 162.695312 21.03125 "
            fill-opacity="1" fill-rule="nonzero" />
    </g>
</svg>